{
  "accessors": [
    {
      "bufferView": 2,
      "componentType": 5126,
      "count": 4,
      "max": [
        112.14125061035156,
        3.552713678800501e-13,
        112.14125061035156
      ],
      "min": [
        -112.14125061035156,
        -3.552713678800501e-13,
        -112.14125061035156
      ],
      "type": "VEC3"
    },
    {
      "bufferView": 2,
      "byteOffset": 48,
      "componentType": 5126,
      "count": 4,
      "max": [
        0.0,
        1.0,
        -3.168070511738166e-15
      ],
      "min": [
        0.0,
        1.0,
        -3.168070511738166e-15
      ],
      "type": "VEC3"
    },
    {
      "bufferView": 1,
      "componentType": 5126,
      "count": 4,
      "max": [
        0.9999000430107117,
        0.9999000430107117
      ],
      "min": [
        9.998001041822135e-05,
        9.998001041822135e-05
      ],
      "type": "VEC2"
    },
    {
      "bufferView": 0,
      "componentType": 5125,
      "count": 6,
      "type": "SCALAR"
    },
    {
      "bufferView": 2,
      "byteOffset": 96,
      "componentType": 5126,
      "count": 126,
      "max": [
        17533.84375,
        16234.3994140625,
        14038.89453125
      ],
      "min": [
        -17635.82421875,
        -4065.60107421875,
        -7255.93017578125
      ],
      "type": "VEC3"
    },
    {
      "bufferView": 2,
      "byteOffset": 1608,
      "componentType": 5126,
      "count": 126,
      "max": [
        0.9935516715049744,
        0.7937374711036682,
        0.7877203822135925
      ],
      "min": [
        -0.9935517311096191,
        -1.0,
        -0.7794819474220276
      ],
      "type": "VEC3"
    },
    {
      "bufferView": 3,
      "componentType": 5126,
      "count": 126,
      "max": [
        1.0,
        0.9484912157058716,
        0.9999943375587463,
        1.0
      ],
      "min": [
        -1.0,
        -0.949078381061554,
        -0.9565614461898804,
        -1.0
      ],
      "type": "VEC4"
    },
    {
      "bufferView": 1,
      "byteOffset": 32,
      "componentType": 5126,
      "count": 126,
      "max": [
        0.9028573632240295,
        0.9209470152854919
      ],
      "min": [
        0.005981967318803072,
        0.002108623506501317
      ],
      "type": "VEC2"
    },
    {
      "bufferView": 0,
      "byteOffset": 24,
      "componentType": 5125,
      "count": 360,
      "type": "SCALAR"
    },
    {
      "bufferView": 2,
      "byteOffset": 3120,
      "componentType": 5126,
      "count": 148,
      "max": [
        73.71261596679688,
        73.7126235961914,
        8.780867576599121
      ],
      "min": [
        -73.71261596679688,
        -73.7126235961914,
        -11.657621383666992
      ],
      "type": "VEC3"
    },
    {
      "bufferView": 2,
      "byteOffset": 4896,
      "componentType": 5126,
      "count": 148,
      "max": [
        1.0,
        1.0,
        0.9123748540878296
      ],
      "min": [
        -1.0,
        -1.0,
        -0.283610999584198
      ],
      "type": "VEC3"
    },
    {
      "bufferView": 3,
      "byteOffset": 2016,
      "componentType": 5126,
      "count": 148,
      "max": [
        0.9871590733528137,
        0.987159013748169,
        0.9866641759872437,
        -1.0
      ],
      "min": [
        -0.9871590733528137,
        -0.9935179948806763,
        -0.9728534817695618,
        -1.0
      ],
      "type": "VEC4"
    },
    {
      "bufferView": 1,
      "byteOffset": 1040,
      "componentType": 5126,
      "count": 148,
      "max": [
        0.7769386768341064,
        0.9023297429084778
      ],
      "min": [
        0.13982197642326355,
        0.05992401763796806
      ],
      "type": "VEC2"
    },
    {
      "bufferView": 0,
      "byteOffset": 1464,
      "componentType": 5125,
      "count": 558,
      "type": "SCALAR"
    },
    {
      "bufferView": 2,
      "byteOffset": 6672,
      "componentType": 5126,
      "count": 2954,
      "max": [
        14541.623046875,
        6172.61181640625,
        9975.814453125
      ],
      "min": [
        -13401.9775390625,
        -5461.24560546875,
        -11024.771484375
      ],
      "type": "VEC3"
    },
    {
      "bufferView": 2,
      "byteOffset": 42120,
      "componentType": 5126,
      "count": 2954,
      "max": [
        1.0,
        1.0,
        1.0
      ],
      "min": [
        -1.0,
        -1.0,
        -1.0
      ],
      "type": "VEC3"
    },
    {
      "bufferView": 3,
      "byteOffset": 4384,
      "componentType": 5126,
      "count": 2954,
      "max": [
        1.0,
        1.0,
        1.0,
        1.0
      ],
      "min": [
        -0.9999852180480957,
        -1.0,
        -1.0,
        -1.0
      ],
      "type": "VEC4"
    },
    {
      "bufferView": 1,
      "byteOffset": 2224,
      "componentType": 5126,
      "count": 2954,
      "max": [
        0.983019232749939,
        0.997891366481781
      ],
      "min": [
        0.001491021947003901,
        0.001491021947003901
      ],
      "type": "VEC2"
    },
    {
      "bufferView": 0,
      "byteOffset": 3696,
      "componentType": 5125,
      "count": 13761,
      "type": "SCALAR"
    },
    {
      "bufferView": 4,
      "componentType": 5126,
      "count": 49,
      "max": [
        1.0
      ],
      "min": [
        0.0
      ],
      "type": "SCALAR"
    },
    {
      "bufferView": 5,
      "componentType": 5126,
      "count": 49,
      "max": [
        0.0,
        0.0,
        1.0,
        1.0
      ],
      "min": [
        0.0,
        0.0,
        -0.8660251498222351,
        -0.4067368805408478
      ],
      "type": "VEC4"
    }
  ],
  "animations": [
    {
      "channels": [
        {
          "sampler": 0,
          "target": {
            "node": 8,
            "path": "rotation"
          }
        }
      ],
      "name": "propeller|propellerAction.001",
      "samplers": [
        {
          "input": 19,
          "interpolation": "LINEAR",
          "output": 20
        }
      ]
    }
  ],
  "asset": {
    "extras": {
      "author": "declanahollis1 (https://sketchfab.com/declanahollis1)",
      "license": "CC-BY-4.0 (http://creativecommons.org/licenses/by/4.0/)",
      "source": "https://sketchfab.com/3d-models/rusty-air-conditioning-4f57abcd020a4923832849dff266b86b",
      "title": "Rusty air conditioning"
    },
    "generator": "Sketchfab-12.68.0",
    "version": "2.0"
  },
  "bufferViews": [
    {
      "buffer": 0,
      "byteLength": 58740,
      "name": "floatBufferViews",
      "target": 34963
    },
    {
      "buffer": 0,
      "byteLength": 25856,
      "byteOffset": 58740,
      "byteStride": 8,
      "name": "floatBufferViews",
      "target": 34962
    },
    {
      "buffer": 0,
      "byteLength": 77568,
      "byteOffset": 84596,
      "byteStride": 12,
      "name": "floatBufferViews",
      "target": 34962
    },
    {
      "buffer": 0,
      "byteLength": 51648,
      "byteOffset": 162164,
      "byteStride": 16,
      "name": "floatBufferViews",
      "target": 34962
    },
    {
      "buffer": 0,
      "byteLength": 196,
      "byteOffset": 213812,
      "name": "floatBufferViews"
    },
    {
      "buffer": 0,
      "byteLength": 784,
      "byteOffset": 214008,
      "byteStride": 16,
      "name": "floatBufferViews"
    }
  ],
  "buffers": [
    {
      "byteLength": 214792,
      "uri": "scene.bin"
    }
  ],
  "images": [
    {
      "uri": "textures/air_conditioner_baseColor.png"
    },
    {
      "uri": "textures/air_conditioner_metallicRoughness.png"
    },
    {
      "uri": "textures/air_conditioner_normal.png"
    }
  ],
  "materials": [
    {
      "doubleSided": true,
      "name": "brick_wall",
      "pbrMetallicRoughness": {
        "baseColorFactor": [
          0.8,
          0.8,
          0.8,
          1.0
        ],
        "metallicFactor": 0.0,
        "roughnessFactor": 0.9577051494623774
      }
    },
    {
      "doubleSided": true,
      "name": "air_conditioner",
      "normalTexture": {
        "index": 2
      },
      "pbrMetallicRoughness": {
        "baseColorTexture": {
          "index": 0
        },
        "metallicRoughnessTexture": {
          "index": 1
        }
      }
    }
  ],
  "meshes": [
    {
      "name": "Plane_brick wall_0",
      "primitives": [
        {
          "attributes": {
            "NORMAL": 1,
            "POSITION": 0,
            "TEXCOORD_0": 2
          },
          "indices": 3,
          "material": 0,
          "mode": 4
        }
      ]
    },
    {
      "name": "wall stand_air_conditioner_0",
      "primitives": [
        {
          "attributes": {
            "NORMAL": 5,
            "POSITION": 4,
            "TANGENT": 6,
            "TEXCOORD_0": 7
          },
          "indices": 8,
          "material": 1,
          "mode": 4
        }
      ]
    },
    {
      "name": "propeller_air_conditioner_0",
      "primitives": [
        {
          "attributes": {
            "NORMAL": 10,
            "POSITION": 9,
            "TANGENT": 11,
            "TEXCOORD_0": 12
          },
          "indices": 13,
          "material": 1,
          "mode": 4
        }
      ]
    },
    {
      "name": "conditioner_air_conditioner_0",
      "primitives": [
        {
          "attributes": {
            "NORMAL": 15,
            "POSITION": 14,
            "TANGENT": 16,
            "TEXCOORD_0": 17
          },
          "indices": 18,
          "material": 1,
          "mode": 4
        }
      ]
    }
  ],
  "nodes": [
    {
      "children": [
        1
      ],
      "matrix": [
        1.0,
        0.0,
        0.0,
        0.0,
        0.0,
        2.220446049250313e-16,
        -1.0,
        0.0,
        0.0,
        1.0,
        2.220446049250313e-16,
        0.0,
        0.0,
        0.0,
        0.0,
        1.0
      ],
      "name": "Sketchfab_model"
    },
    {
      "children": [
        2
      ],
      "matrix": [
        0.009999999776482582,
        0.0,
        0.0,
        0.0,
        0.0,
        0.0,
        0.009999999776482582,
        0.0,
        0.0,
        -0.009999999776482582,
        0.0,
        0.0,
        0.0,
        0.0,
        0.0,
        1.0
      ],
      "name": "air conditioner.fbx"
    },
    {
      "children": [
        3
      ],
      "name": "Object_2"
    },
    {
      "children": [
        4,
        6,
        8,
        10
      ],
      "name": "RootNode"
    },
    {
      "children": [
        5
      ],
      "name": "Plane",
      "rotation": [
        0.7071068286895752,
        0.0,
        0.0,
        0.7071067094802856
      ],
      "scale": [
        3.3371734619140625,
        3.3371734619140625,
        3.3371734619140625
      ],
      "translation": [
        0.0,
        0.0,
        -54.96232604980469
      ]
    },
    {
      "mesh": 0,
      "name": "Plane_brick wall_0"
    },
    {
      "children": [
        7
      ],
      "name": "wall stand",
      "rotation": [
        0.7071068286895752,
        0.0,
        0.0,
        0.7071067094802856
      ],
      "scale": [
        0.005863314960151911,
        0.005863314960151911,
        0.005863314960151911
      ],
      "translation": [
        -13.54428482055664,
        -117.19818115234375,
        -30.517688751220703
      ]
    },
    {
      "mesh": 1,
      "name": "wall stand_air_conditioner_0"
    },
    {
      "children": [
        9
      ],
      "name": "propeller",
      "translation": [
        -41.662078857421875,
        5.451112270355225,
        32.86725997924805
      ]
    },
    {
      "mesh": 2,
      "name": "propeller_air_conditioner_0"
    },
    {
      "children": [
        11
      ],
      "name": "conditioner",
      "rotation": [
        0.7071068286895752,
        0.0,
        0.0,
        0.7071067094802856
      ],
      "scale": [
        0.009999999776482582,
        0.009999999776482582,
        0.009999999776482582
      ]
    },
    {
      "mesh": 3,
      "name": "conditioner_air_conditioner_0"
    }
  ],
  "samplers": [
    {
      "magFilter": 9729,
      "minFilter": 9987,
      "wrapS": 10497,
      "wrapT": 10497
    }
  ],
  "scene": 0,
  "scenes": [
    {
      "name": "Sketchfab_Scene",
      "nodes": [
        0
      ]
    }
  ],
  "textures": [
    {
      "sampler": 0,
      "source": 0
    },
    {
      "sampler": 0,
      "source": 1
    },
    {
      "sampler": 0,
      "source": 2
    }
  ]
}
