{
  "accessors": [
    {
      "bufferView": 2,
      "componentType": 5126,
      "count": 13263,
      "max": [
        0.059775400906801224,
        0.08219622820615768,
        0.0646737664937973
      ],
      "min": [
        -0.06793325394392014,
        -0.08127229660749435,
        -0.05312042683362961
      ],
      "type": "VEC3"
    },
    {
      "bufferView": 2,
      "byteOffset": 159156,
      "componentType": 5126,
      "count": 13263,
      "max": [
        0.9999728798866272,
        0.9999996423721313,
        0.9999410510063171
      ],
      "min": [
        -0.9999753832817078,
        -0.9999449253082275,
        -0.9999969601631165
      ],
      "type": "VEC3"
    },
    {
      "bufferView": 3,
      "componentType": 5126,
      "count": 13263,
      "max": [
        0.9999517798423767,
        0.9999932646751404,
        0.9998764991760254,
        1.0
      ],
      "min": [
        -0.9999640583992004,
        -0.99998939037323,
        -0.9999933242797852,
        1.0
      ],
      "type": "VEC4"
    },
    {
      "bufferView": 1,
      "componentType": 5126,
      "count": 13263,
      "max": [
        0.9956501722335815,
        0.9998993873596191
      ],
      "min": [
        7.092230225680396e-05,
        0.0001234343508258462
      ],
      "type": "VEC2"
    },
    {
      "bufferView": 1,
      "byteOffset": 106104,
      "componentType": 5126,
      "count": 13263,
      "max": [
        0.9956501722335815,
        0.9998993873596191
      ],
      "min": [
        7.092230225680396e-05,
        0.0001234343508258462
      ],
      "type": "VEC2"
    },
    {
      "bufferView": 1,
      "byteOffset": 212208,
      "componentType": 5126,
      "count": 13263,
      "max": [
        0.9956501722335815,
        0.9998993873596191
      ],
      "min": [
        7.092230225680396e-05,
        0.0001234343508258462
      ],
      "type": "VEC2"
    },
    {
      "bufferView": 0,
      "componentType": 5125,
      "count": 57900,
      "type": "SCALAR"
    }
  ],
  "asset": {
    "extras": {
      "author": "mechaghost (https://sketchfab.com/mechaghost)",
      "license": "CC-BY-4.0 (http://creativecommons.org/licenses/by/4.0/)",
      "source": "https://sketchfab.com/3d-models/couples-music-box-284f6685ea7a45c487ede218bfc06434",
      "title": "Couple's Music Box"
    },
    "generator": "Sketchfab-12.66.0",
    "version": "2.0"
  },
  "bufferViews": [
    {
      "buffer": 0,
      "byteLength": 231600,
      "name": "floatBufferViews",
      "target": 34963
    },
    {
      "buffer": 0,
      "byteLength": 318312,
      "byteOffset": 231600,
      "byteStride": 8,
      "name": "floatBufferViews",
      "target": 34962
    },
    {
      "buffer": 0,
      "byteLength": 318312,
      "byteOffset": 549912,
      "byteStride": 12,
      "name": "floatBufferViews",
      "target": 34962
    },
    {
      "buffer": 0,
      "byteLength": 212208,
      "byteOffset": 868224,
      "byteStride": 16,
      "name": "floatBufferViews",
      "target": 34962
    }
  ],
  "buffers": [
    {
      "byteLength": 1080432,
      "uri": "scene.bin"
    }
  ],
  "images": [
    {
      "uri": "textures/material_0_baseColor.jpeg"
    },
    {
      "uri": "textures/material_0_metallicRoughness.png"
    },
    {
      "uri": "textures/material_0_normal.jpeg"
    }
  ],
  "materials": [
    {
      "name": "material_0",
      "normalTexture": {
        "index": 2
      },
      "occlusionTexture": {
        "index": 1
      },
      "pbrMetallicRoughness": {
        "baseColorTexture": {
          "index": 0
        },
        "metallicFactor": 0.0,
        "metallicRoughnessTexture": {
          "index": 1
        }
      }
    }
  ],
  "meshes": [
    {
      "name": "Object_0",
      "primitives": [
        {
          "attributes": {
            "NORMAL": 1,
            "POSITION": 0,
            "TANGENT": 2,
            "TEXCOORD_0": 3,
            "TEXCOORD_1": 4,
            "TEXCOORD_2": 5
          },
          "indices": 6,
          "material": 0,
          "mode": 4
        }
      ]
    }
  ],
  "nodes": [
    {
      "children": [
        1
      ],
      "matrix": [
        1.0,
        0.0,
        0.0,
        0.0,
        0.0,
        2.220446049250313e-16,
        -1.0,
        0.0,
        0.0,
        1.0,
        2.220446049250313e-16,
        0.0,
        0.0,
        0.0,
        0.0,
        1.0
      ],
      "name": "Sketchfab_model"
    },
    {
      "children": [
        2
      ],
      "name": "root"
    },
    {
      "children": [
        3
      ],
      "matrix": [
        1.0,
        0.0,
        0.0,
        0.0,
        0.0,
        2.220446049250313e-16,
        1.0,
        0.0,
        0.0,
        -1.0,
        2.220446049250313e-16,
        0.0,
        0.0,
        0.0,
        0.0,
        1.0
      ],
      "name": "GLTF_SceneRootNode"
    },
    {
      "children": [
        4
      ],
      "name": "_0"
    },
    {
      "mesh": 0,
      "name": "Object_4"
    }
  ],
  "samplers": [
    {
      "magFilter": 9729,
      "minFilter": 9987,
      "wrapS": 10497,
      "wrapT": 10497
    }
  ],
  "scene": 0,
  "scenes": [
    {
      "name": "Sketchfab_Scene",
      "nodes": [
        0
      ]
    }
  ],
  "textures": [
    {
      "sampler": 0,
      "source": 0
    },
    {
      "sampler": 0,
      "source": 1
    },
    {
      "sampler": 0,
      "source": 2
    }
  ]
}
